<svg xmlns="http://www.w3.org/2000/svg" xml:space="preserve" width="1em" height="1em" viewBox="0 0 493.36 441.333"><title>IIIF Cookbok</title><path d="m65.242 2178.75 710-263.75-1.25-1900-708.75 261.25v1902.5m738.903 461.34c81.441-240.91-26.473-436.2-241.04-436.2-214.558 0-454.511 195.29-535.953 436.2-81.433 240.89 26.48 436.18 241.039 436.18 214.567 0 454.512-195.29 535.954-436.18" transform="matrix(.13333 0 0 -.13333 0 441.333)" style="fill: #fff; fill-opacity: 1; fill-rule: nonzero; stroke: none;"></path><path d="M1678.58 2178.75 968.578 1915l1.25-1900 708.752 261.25v1902.5m-743.498 461.34c-81.437-240.91 26.477-436.2 241.038-436.2 214.56 0 454.51 195.29 535.96 436.2 81.43 240.89-26.48 436.18-241.04 436.18-214.57 0-454.52-195.29-535.958-436.18" transform="matrix(.13333 0 0 -.13333 0 441.333)" style="fill: #fff; fill-opacity: 1; fill-rule: nonzero; stroke: none;"></path><path d="m1860.24 2178.75 710-263.75-1.25-1900-708.75 261.25v1902.5m743.5 461.34c81.45-240.91-26.47-436.2-241.03-436.2-214.58 0-454.52 195.29-535.96 436.2-81.44 240.89 26.48 436.18 241.03 436.18 214.57 0 454.51-195.29 535.96-436.18" transform="matrix(.13333 0 0 -.13333 0 441.333)" style="fill: #fff; fill-opacity: 1; fill-rule: nonzero; stroke: none;"></path><path d="M3700.24 3310v-652.5s-230 90-257.5-142.5c-2.5-247.5 0-336.25 0-336.25l257.5 83.75V1690l-258.61-92.5v-1335L2735.24 0v2360s-15 850 965 950" transform="matrix(.13333 0 0 -.13333 0 441.333)" style="fill: #fff; fill-opacity: 1; fill-rule: nonzero; stroke: none;"></path></svg>
